<svg width="50" height="50" viewBox="0 0 50 50" fill="none" xmlns="http://www.w3.org/2000/svg">
<g filter="url(#filter0_d_5810_1383)">
<rect x="10" y="6" width="30" height="30" rx="15" fill="white"/>
</g>
<path d="M25.7904 27.9039L25.7888 27.9054C25.3464 28.307 24.6642 28.3068 24.222 27.8994L24.2196 27.8972L24.1279 27.8139L24.127 27.8131C21.929 25.8245 20.1548 24.216 18.937 22.7064C17.7264 21.2059 17.1179 19.8651 17.1663 18.4177C17.211 17.1549 17.8592 15.9461 18.8979 15.2388L18.8982 15.2387C20.8562 13.9036 23.2931 14.5143 24.6197 16.067L24.9999 16.5119L25.38 16.067C26.7077 14.513 29.144 13.8966 31.1005 15.2379L31.1018 15.2388C32.1407 15.9462 32.7889 17.1551 32.8335 18.4182L32.8335 18.4186C32.8857 19.8652 32.2778 21.2056 31.0659 22.7086C29.8509 24.2153 28.0825 25.8221 25.8945 27.81L25.8737 27.8289L25.872 27.8305L25.7904 27.9039Z" stroke="#F3603F"/>
<defs>
<filter id="filter0_d_5810_1383" x="0" y="0" width="50" height="50" filterUnits="userSpaceOnUse" color-interpolation-filters="sRGB">
<feFlood flood-opacity="0" result="BackgroundImageFix"/>
<feColorMatrix in="SourceAlpha" type="matrix" values="0 0 0 0 0 0 0 0 0 0 0 0 0 0 0 0 0 0 127 0" result="hardAlpha"/>
<feOffset dy="4"/>
<feGaussianBlur stdDeviation="5"/>
<feComposite in2="hardAlpha" operator="out"/>
<feColorMatrix type="matrix" values="0 0 0 0 0 0 0 0 0 0 0 0 0 0 0 0 0 0 0.1 0"/>
<feBlend mode="normal" in2="BackgroundImageFix" result="effect1_dropShadow_5810_1383"/>
<feBlend mode="normal" in="SourceGraphic" in2="effect1_dropShadow_5810_1383" result="shape"/>
</filter>
</defs>
</svg>
