<svg width="32" height="33" viewBox="0 0 32 33" fill="none" xmlns="http://www.w3.org/2000/svg">
<path opacity="0.1" fill-rule="evenodd" clip-rule="evenodd" d="M0 16.5C0 7.66344 7.16344 0.5 16 0.5C24.8366 0.5 32 7.66344 32 16.5C32 25.3366 24.8366 32.5 16 32.5C7.16344 32.5 0 25.3366 0 16.5Z" fill="white"/>
<path fill-rule="evenodd" clip-rule="evenodd" d="M16.0009 7.96667C13.6834 7.96667 13.3925 7.97681 12.4823 8.01823C11.5739 8.05983 10.9538 8.20366 10.4112 8.41468C9.84993 8.63264 9.37384 8.9242 8.89952 9.39869C8.42485 9.87301 8.13329 10.3491 7.91462 10.9102C7.70307 11.4529 7.55906 12.0732 7.51818 12.9813C7.47746 13.8915 7.4668 14.1826 7.4668 16.5001C7.4668 18.8176 7.47711 19.1076 7.51835 20.0178C7.56013 20.9263 7.70395 21.5464 7.9148 22.089C8.13294 22.6502 8.4245 23.1263 8.89899 23.6006C9.37313 24.0753 9.84922 24.3676 10.4101 24.5855C10.9531 24.7965 11.5733 24.9404 12.4816 24.982C13.3918 25.0234 13.6825 25.0335 15.9999 25.0335C18.3176 25.0335 18.6075 25.0234 19.5178 24.982C20.4262 24.9404 21.047 24.7965 21.59 24.5855C22.151 24.3676 22.6264 24.0753 23.1006 23.6006C23.5752 23.1263 23.8668 22.6502 24.0855 22.0891C24.2952 21.5464 24.4392 20.9261 24.4819 20.018C24.5228 19.1078 24.5335 18.8176 24.5335 16.5001C24.5335 14.1826 24.5228 13.8917 24.4819 12.9815C24.4392 12.073 24.2952 11.4529 24.0855 10.9103C23.8668 10.3491 23.5752 9.87301 23.1006 9.39869C22.6259 8.92402 22.1512 8.63246 21.5894 8.41468C21.0454 8.20366 20.425 8.05983 19.5165 8.01823C18.6063 7.97681 18.3165 7.96667 15.9983 7.96667H16.0009ZM15.2354 9.50444C15.4626 9.50409 15.7161 9.50444 16.0009 9.50444C18.2793 9.50444 18.5494 9.51262 19.4491 9.55351C20.2811 9.59156 20.7327 9.73058 21.0335 9.84738C21.4317 10.002 21.7156 10.1869 22.0141 10.4856C22.3128 10.7843 22.4977 11.0687 22.6527 11.467C22.7695 11.7674 22.9087 12.219 22.9466 13.051C22.9875 13.9505 22.9963 14.2208 22.9963 16.4981C22.9963 18.7755 22.9875 19.0457 22.9466 19.9453C22.9085 20.7773 22.7695 21.2288 22.6527 21.5293C22.498 21.9275 22.3128 22.2111 22.0141 22.5096C21.7154 22.8082 21.4319 22.9931 21.0335 23.1478C20.733 23.2651 20.2811 23.4038 19.4491 23.4418C18.5495 23.4827 18.2793 23.4916 16.0009 23.4916C13.7223 23.4916 13.4522 23.4827 12.5527 23.4418C11.7207 23.4034 11.2691 23.2644 10.9681 23.1476C10.5699 22.9929 10.2855 22.8081 9.98679 22.5094C9.68812 22.2107 9.50323 21.927 9.3482 21.5286C9.2314 21.2281 9.0922 20.7766 9.05433 19.9446C9.01344 19.045 9.00527 18.7748 9.00527 16.496C9.00527 14.2172 9.01344 13.9484 9.05433 13.0488C9.09238 12.2168 9.2314 11.7653 9.3482 11.4645C9.50287 11.0662 9.68812 10.7818 9.98679 10.4831C10.2855 10.1845 10.5699 9.99956 10.9681 9.84454C11.2689 9.7272 11.7207 9.58853 12.5527 9.55031C13.3399 9.51476 13.645 9.50409 15.2354 9.50231V9.50444ZM20.556 10.9214C19.9906 10.9214 19.532 11.3795 19.532 11.945C19.532 12.5103 19.9906 12.969 20.556 12.969C21.1213 12.969 21.58 12.5103 21.58 11.945C21.58 11.3797 21.1213 10.9214 20.556 10.9214ZM16.0009 12.1178C13.5808 12.1178 11.6187 14.08 11.6187 16.5001C11.6187 18.9202 13.5808 20.8815 16.0009 20.8815C18.4211 20.8815 20.3825 18.9202 20.3825 16.5001C20.3825 14.08 18.4211 12.1178 16.0009 12.1178ZM16.0009 13.6556C17.5718 13.6556 18.8454 14.929 18.8454 16.5001C18.8454 18.0709 17.5718 19.3445 16.0009 19.3445C14.4299 19.3445 13.1564 18.0709 13.1564 16.5001C13.1564 14.929 14.4299 13.6556 16.0009 13.6556Z" fill="white"/>
</svg>
