<svg width="430" height="509" viewBox="0 0 430 509" fill="none" xmlns="http://www.w3.org/2000/svg">
<g opacity="0.05">
<path fill-rule="evenodd" clip-rule="evenodd" d="M166.07 264.623C161.67 269.324 166.063 278.663 150.071 287.254C116.613 305.141 110.836 337.053 82.6203 348.24C82.2893 348.319 121.169 344.043 144.567 316.896C154.326 305.503 160.371 289.547 163.173 280.565C164.12 277.375 166.844 263.683 166.07 264.623Z" fill="#3AC24A"/>
<path fill-rule="evenodd" clip-rule="evenodd" d="M178.071 259.025C172.446 255.909 164.53 262.535 152.219 249.032C126.61 220.899 94.4311 223.366 76.5752 198.588C76.3846 198.321 90.2843 234.976 122.327 250.965C135.762 257.666 152.472 259.601 161.948 260.07C165.166 260.242 179.078 259.535 178.071 259.025Z" fill="#3AC24A"/>
<path fill-rule="evenodd" clip-rule="evenodd" d="M177.625 225.247C162.773 185.824 118.697 180.018 100.935 155.337C100.821 155.139 108.284 182.168 137.103 201.308C156.504 214.135 150.614 232.19 170.847 238.686C177.57 240.901 188.439 236.864 202.301 237.507C210.154 237.898 213.831 236.973 215.72 236.86C222.396 236.574 181.407 235.092 177.625 225.247Z" fill="#3AC24A"/>
<path fill-rule="evenodd" clip-rule="evenodd" d="M259.6 267.683C225.623 292.51 231.805 336.658 212.699 360.487C212.615 360.536 236.542 346.137 247.275 313.238C254.503 290.975 273.409 292.09 274.347 270.717C274.739 263.622 267.932 254.136 264.876 240.588C263.243 232.781 261.299 229.53 260.693 227.693C258.631 221.23 268 261.379 259.6 267.683Z" fill="#3AC24A"/>
<path fill-rule="evenodd" clip-rule="evenodd" d="M251.283 230.998C247.054 224.167 237.269 227.084 230.75 204.375C216.902 156.634 185.759 140.577 178.162 101.287C178.083 100.955 177.586 151.654 201.778 189.022C211.92 204.763 227.015 216.766 235.656 222.775C238.656 224.922 252.031 232.3 251.283 230.998Z" fill="#3AC24A"/>
<path fill-rule="evenodd" clip-rule="evenodd" d="M233.11 232.137C228.71 236.838 233.103 246.177 217.111 254.769C183.653 272.655 136.862 341.926 155.775 365.601C156.051 365.819 158.952 322.895 211.591 284.381C223.698 275.439 227.46 257.146 230.197 248.051C231.075 244.938 233.913 231.181 233.11 232.137Z" fill="#3AC24A"/>
<path fill-rule="evenodd" clip-rule="evenodd" d="M141.087 276.728C134.798 275.921 129.187 279.626 112.896 271.751C78.5266 255.376 64.8774 284.381 39.1551 268.012C38.9447 267.907 50.8516 287.569 86.4158 290.271C101.478 291.501 117.727 286.949 126.577 283.781C129.621 282.734 142.302 276.816 141.087 276.728Z" fill="#3AC24A"/>
<path fill-rule="evenodd" clip-rule="evenodd" d="M320.578 228.183C313.311 221.491 304.032 226.531 287.502 202.946C252.76 153.507 244.252 185.833 219.951 97.6267C219.873 97.2944 208.674 155.329 250.252 191.561C267.67 206.82 288.788 217.142 300.565 222.201C304.667 223.974 321.952 229.462 320.578 228.183Z" fill="#3AC24A"/>
<path fill-rule="evenodd" clip-rule="evenodd" d="M352.725 238.602C349.035 229.309 338.537 229.809 333.765 201.446C323.909 141.694 302.231 167.127 318.435 77.2119C318.51 76.7539 283.467 124.236 305.143 174.872C314.297 196.28 328.846 214.787 337.209 224.429C340.151 227.779 353.399 240.362 352.725 238.602Z" fill="#3AC24A"/>
<path fill-rule="evenodd" clip-rule="evenodd" d="M331.869 234.618C328.62 241.972 317.876 242.503 314.39 264.673C306.893 310.978 276.784 335.148 274.434 372.168C274.427 372.549 266.612 327.914 286.479 287.305C294.747 270.249 308.76 254.882 316.817 246.739C319.687 244.019 332.517 233.261 331.869 234.618Z" fill="#3AC24A"/>
<path fill-rule="evenodd" clip-rule="evenodd" d="M367.117 245.919C369.235 238.427 365.694 232.857 379.111 212.402C407.32 169.636 372.331 160.223 398.529 127.227C398.831 126.901 370.887 144.836 360.195 186.238C355.744 203.723 358.385 221.322 360.643 230.805C361.486 234.165 366.602 247.311 367.117 245.919Z" fill="#3AC24A"/>
<path fill-rule="evenodd" clip-rule="evenodd" d="M383.747 257.521C389.764 255.241 393.097 249.535 411.16 248.989C449.222 247.866 448.095 215.843 478.524 218.504C478.77 218.474 459.26 206.503 426.264 220.423C412.423 226.22 399.988 237.73 393.499 244.548C391.176 246.914 382.639 258.013 383.747 257.521Z" fill="#3AC24A"/>
<path fill-rule="evenodd" clip-rule="evenodd" d="M383.69 345.848C384.837 341.373 388.647 338.522 387.597 325.586C385.526 298.26 408.31 296.448 404.065 274.948C404.084 274.786 414.125 287.87 406.851 312.537C403.74 322.943 396.51 332.72 392.12 337.83C390.61 339.649 383.476 346.652 383.69 345.848Z" fill="#3AC24A"/>
<path fill-rule="evenodd" clip-rule="evenodd" d="M454.715 343.428C435.052 335.243 406.992 187.824 222.612 232.638C185.965 241.581 154.176 284.46 116.359 277.252C117.782 284.955 138.336 280.964 162.843 268.946C180.912 259.981 199.991 244.733 221.702 236.675C246.766 227.391 273.955 229.515 290.051 229.013C306.225 228.58 321.809 231.696 334.985 235.528C359.884 242.753 363.374 244.051 392.997 267.856C417.815 287.882 450.007 349.552 450.007 349.552C455.548 341.02 456.41 344.218 454.715 343.428Z" fill="#14771E"/>
</g>
</svg>
