<svg width="14" height="13" viewBox="0 0 14 13" fill="none" xmlns="http://www.w3.org/2000/svg">
<path d="M12.5197 7.47193C12.3517 7.41957 12.1698 7.43575 12.0137 7.51692C11.8576 7.59809 11.7399 7.73768 11.6863 7.90526C11.3714 8.86824 10.7574 9.70561 9.93364 10.2955C9.10991 10.8854 8.11944 11.1971 7.10633 11.1853C5.85323 11.1995 4.64562 10.7162 3.74831 9.84142C2.851 8.9666 2.33723 7.77165 2.31966 6.51859C2.33723 5.26553 2.851 4.07058 3.74831 3.19577C4.64562 2.32095 5.85323 1.83768 7.10633 1.85193C8.23805 1.84919 9.33494 2.24313 10.2063 2.96526L8.75966 2.72526C8.67296 2.71099 8.58429 2.71401 8.49876 2.73413C8.41323 2.75425 8.33252 2.79108 8.26127 2.8425C8.19002 2.89393 8.12964 2.95893 8.0836 3.03377C8.03756 3.10861 8.00677 3.19181 7.993 3.27859C7.97873 3.36529 7.98174 3.45396 8.00186 3.53949C8.02199 3.62503 8.05882 3.70574 8.11024 3.77699C8.16166 3.84824 8.22666 3.90862 8.3015 3.95466C8.37634 4.0007 8.45955 4.03149 8.54633 4.04526L11.373 4.51193H11.4863C11.5636 4.51184 11.6403 4.4983 11.713 4.47193C11.7374 4.46266 11.76 4.44911 11.7797 4.43193C11.8275 4.41415 11.8724 4.38944 11.913 4.35859L11.973 4.28526C11.973 4.25193 12.033 4.22526 12.0597 4.18526C12.0863 4.14526 12.0597 4.11859 12.093 4.09193C12.1114 4.0531 12.127 4.013 12.1397 3.97193L12.6397 1.30526C12.6563 1.21771 12.6555 1.12774 12.6374 1.0405C12.6193 0.953246 12.5841 0.870423 12.534 0.796756C12.4838 0.723088 12.4197 0.660018 12.3451 0.611147C12.2706 0.562276 12.1872 0.528561 12.0997 0.511927C12.0121 0.495293 11.9221 0.496065 11.8349 0.5142C11.7476 0.532336 11.6648 0.567478 11.5912 0.617622C11.4424 0.718892 11.3399 0.875116 11.3063 1.05193L11.1263 2.01859C10.0103 1.05142 8.58311 0.51888 7.10633 0.518593C5.49962 0.504372 3.95288 1.12812 2.80553 2.25298C1.65818 3.37784 1.00392 4.91192 0.986328 6.51859C1.00392 8.12527 1.65818 9.65935 2.80553 10.7842C3.95288 11.9091 5.49962 12.5328 7.10633 12.5186C8.40842 12.5386 9.68254 12.14 10.7411 11.3815C11.7996 10.623 12.5867 9.54466 12.9863 8.30526C13.0116 8.21991 13.0196 8.13035 13.0097 8.04188C12.9998 7.95341 12.9723 7.86781 12.9288 7.79014C12.8853 7.71247 12.8267 7.6443 12.7564 7.58964C12.6862 7.53499 12.6056 7.49497 12.5197 7.47193Z" fill="#B0B7C3"/>
</svg>
