<svg width="32" height="33" viewBox="0 0 32 33" fill="none" xmlns="http://www.w3.org/2000/svg">
<path opacity="0.1" fill-rule="evenodd" clip-rule="evenodd" d="M0 16.5C0 7.66344 7.16344 0.5 16 0.5C24.8366 0.5 32 7.66344 32 16.5C32 25.3366 24.8366 32.5 16 32.5C7.16344 32.5 0 25.3366 0 16.5Z" fill="white"/>
<path d="M21.8079 10.74L8.51194 16.02C8.07994 16.164 8.12794 16.788 8.55994 16.932L11.9199 17.988L13.2639 22.2121C13.3599 22.5481 13.7919 22.644 14.0319 22.404L15.9999 20.58L19.7439 23.3161C20.0319 23.508 20.4159 23.364 20.5119 23.028L23.1039 11.892C23.2479 11.076 22.5279 10.452 21.8079 10.74ZM14.0319 18.804L13.5999 21.3L12.6399 17.844L21.9999 11.7L14.0319 18.804Z" fill="white"/>
</svg>
