<svg width="7" height="12" viewBox="0 0 7 12" fill="none" xmlns="http://www.w3.org/2000/svg">
<path d="M1.47478 0.16664C1.59928 0.166216 1.72229 0.193693 1.83477 0.24705C1.94725 0.300407 2.04635 0.37829 2.12478 0.474973L6.14978 5.47497C6.27235 5.62408 6.33935 5.81112 6.33935 6.00414C6.33935 6.19716 6.27235 6.3842 6.14978 6.53331L1.98312 11.5333C1.84167 11.7035 1.63841 11.8105 1.41805 11.8308C1.1977 11.8511 0.978298 11.7831 0.808117 11.6416C0.637937 11.5002 0.530917 11.2969 0.510601 11.0766C0.490284 10.8562 0.558335 10.6368 0.699784 10.4666L4.42478 5.99997L0.824783 1.53331C0.722881 1.41099 0.65815 1.26203 0.63825 1.10408C0.618351 0.946121 0.644115 0.785767 0.712494 0.641994C0.780874 0.498221 0.889008 0.377044 1.0241 0.292802C1.15919 0.20856 1.31559 0.16478 1.47478 0.16664Z" fill="#BDBDBD"/>
</svg>
