<svg width="32" height="33" viewBox="0 0 32 33" fill="none" xmlns="http://www.w3.org/2000/svg">
<path opacity="0.1" fill-rule="evenodd" clip-rule="evenodd" d="M0 16.5C0 7.66344 7.16344 0.5 16 0.5C24.8366 0.5 32 7.66344 32 16.5C32 25.3366 24.8366 32.5 16 32.5C7.16344 32.5 0 25.3366 0 16.5Z" fill="white"/>
<path fill-rule="evenodd" clip-rule="evenodd" d="M22.6679 10.9995C23.4022 11.201 23.9805 11.7948 24.1768 12.5488C24.5335 13.9153 24.5335 16.7666 24.5335 16.7666C24.5335 16.7666 24.5335 19.6178 24.1768 20.9845C23.9805 21.7385 23.4022 22.3322 22.6679 22.5338C21.3371 22.9 16.0001 22.9 16.0001 22.9C16.0001 22.9 10.6632 22.9 9.3323 22.5338C8.59795 22.3322 8.01962 21.7385 7.82335 20.9845C7.4668 19.6178 7.4668 16.7666 7.4668 16.7666C7.4668 16.7666 7.4668 13.9153 7.82335 12.5488C8.01962 11.7948 8.59795 11.201 9.3323 10.9995C10.6632 10.6333 16.0001 10.6333 16.0001 10.6333C16.0001 10.6333 21.3371 10.6333 22.6679 10.9995ZM14.4001 14.3666V19.6999L18.6668 17.0333L14.4001 14.3666Z" fill="white"/>
</svg>
